<?xml version="1.0" encoding="utf-8"?>
<!-- Generator: Adobe Illustrator 16.0.0, SVG Export Plug-In . SVG Version: 6.00 Build 0)  -->
<!DOCTYPE svg PUBLIC "-//W3C//DTD SVG 1.1//EN" "http://www.w3.org/Graphics/SVG/1.1/DTD/svg11.dtd">
<svg version="1.1" id="Layer_2" xmlns="http://www.w3.org/2000/svg" xmlns:xlink="http://www.w3.org/1999/xlink" x="0px" y="0px"
	 width="500px" height="500px" viewBox="0 0 500 500" enable-background="new 0 0 500 500" xml:space="preserve">
<g id="Layer_3">
</g>
<g>
	<path fill="#FFFFFF" d="M289.524,83.218c0-8.072,0.622-16.104,1.857-24.032c-48.016,21.079-80.214,69.214-80.214,122.755
		c0,73.88,60.103,133.984,133.979,133.984c52.972,0,100.896-31.749,122.247-79.106c-7.469,1.093-15.031,1.643-22.628,1.643
		C359.165,238.461,289.524,168.819,289.524,83.218z"/>
	<path fill="#EAC618" d="M481.121,212.208c-11.778,3.313-24.01,4.993-36.355,4.993c-73.878,0-133.981-60.104-133.981-133.983
		c0-12.746,1.795-25.372,5.334-37.527l5.355-18.391l-18.439,5.187c-31.935,8.981-60.713,28.488-81.036,54.927
		c-20.994,27.312-32.09,59.998-32.09,94.527c0,85.603,69.64,155.244,155.238,155.244c34.279,0,66.776-10.952,93.978-31.673
		c26.317-20.047,45.879-48.493,55.082-80.1l5.355-18.392L481.121,212.208z M345.146,315.925
		c-73.876,0-133.979-60.104-133.979-133.984c0-53.541,32.198-101.676,80.214-122.755c-1.235,7.928-1.857,15.96-1.857,24.032
		c0,85.602,69.641,155.243,155.241,155.243c7.597,0,15.159-0.55,22.628-1.643C446.042,284.176,398.118,315.925,345.146,315.925z"/>
	<path fill="#FFFFFF" d="M312.517,271.887c-5.784-0.989-9.672-6.478-8.687-12.263c0.48-2.821,0.714-5.339,0.714-7.695
		c0-24.344-19.807-44.148-44.151-44.148c-5.055,0-10.147,0.92-15.134,2.734c-4.665,1.699-9.884-0.06-12.572-4.234
		c-16.582-25.754-44.704-41.13-75.226-41.13c-49.363,0-89.523,40.156-89.523,89.515c0,2.201,0.167,4.483,0.344,6.9
		c0.377,5.15-2.999,9.873-8.007,11.132c-22.713,5.707-38.576,26.018-38.576,49.392c0,28.138,22.877,51.03,50.996,51.03h231.153
		c28.141,0,51.034-22.893,51.034-51.03C354.882,297.197,337.064,276.085,312.517,271.887z"/>
	<path fill="#808083" d="M325.788,253.274c0.011-0.451,0.016-0.899,0.016-1.346c0-36.066-29.344-65.408-65.411-65.408
		c-4.826,0-9.651,0.554-14.42,1.65c-20.889-27.869-53.415-44.28-88.512-44.28c-61.086,0-110.783,49.693-110.783,110.774
		c0,0.025,0,0.052,0,0.077c-27.617,10.621-46.239,37.183-46.239,67.347c0,39.861,32.414,72.29,72.256,72.29h231.153
		c39.863,0,72.294-32.429,72.294-72.29C376.142,290.175,355.48,262.643,325.788,253.274z M303.848,373.119H72.694
		c-28.119,0-50.996-22.893-50.996-51.03c0-23.374,15.863-43.685,38.576-49.392c5.009-1.259,8.385-5.981,8.007-11.132
		c-0.177-2.417-0.344-4.699-0.344-6.9c0-49.358,40.16-89.515,89.523-89.515c30.522,0,58.644,15.376,75.226,41.13
		c2.688,4.175,7.907,5.934,12.572,4.234c4.987-1.814,10.08-2.734,15.134-2.734c24.345,0,44.151,19.805,44.151,44.148
		c0,2.356-0.233,4.874-0.714,7.695c-0.985,5.785,2.902,11.273,8.687,12.263c24.548,4.198,42.365,25.311,42.365,50.202
		C354.882,350.227,331.988,373.119,303.848,373.119z"/>
	<g>
		<g>
			<path fill="#58A1D4" d="M88.079,472.7c-2.387,0-4.787-0.799-6.77-2.439c-4.523-3.742-5.157-10.442-1.415-14.966l30.333-36.666
				c3.742-4.523,10.442-5.158,14.966-1.415c4.523,3.742,5.157,10.442,1.415,14.966l-30.333,36.666
				C94.173,471.387,91.138,472.7,88.079,472.7z"/>
		</g>
		<g>
			<path fill="#58A1D4" d="M173.083,472.7c-2.387,0-4.787-0.799-6.77-2.439c-4.523-3.742-5.157-10.442-1.415-14.966l30.333-36.666
				c3.742-4.523,10.442-5.158,14.966-1.415c4.523,3.742,5.157,10.442,1.415,14.966l-30.333,36.666
				C179.177,471.387,176.142,472.7,173.083,472.7z"/>
		</g>
		<g>
			<path fill="#58A1D4" d="M257.088,472.7c-2.387,0-4.788-0.8-6.771-2.44c-4.523-3.742-5.156-10.442-1.414-14.966l30.338-36.666
				c3.741-4.522,10.442-5.156,14.966-1.413c4.523,3.742,5.156,10.442,1.413,14.966l-30.338,36.666
				C263.182,471.387,260.146,472.7,257.088,472.7z"/>
		</g>
	</g>
</g>
</svg>
